<?xml version="1.0" encoding="iso-8859-1"?>
<!-- Generator: Adobe Illustrator 19.0.0, SVG Export Plug-In . SVG Version: 6.00 Build 0)  -->
<svg version="1.1" id="Capa_1" xmlns="http://www.w3.org/2000/svg" xmlns:xlink="http://www.w3.org/1999/xlink" x="0px" y="0px"
	 viewBox="0 0 512 512" style="enable-background:new 0 0 512 512;" xml:space="preserve">
<path style="fill:#FFDB2D;" d="M204.216,283.842V167.116c0-28.553,23.229-51.783,51.782-51.783c28.553,0,51.782,23.23,51.782,51.783
	v116.726h108.551V160.333C416.331,71.925,344.406,0,255.998,0S95.665,71.925,95.665,160.333v123.509L204.216,283.842
	L204.216,283.842z"/>
<path style="fill:#FFB22D;" d="M255.998,0v115.333c28.553,0,51.782,23.23,51.782,51.783v116.726h108.551V160.333
	C416.331,71.925,344.406,0,255.998,0z"/>
<rect x="309.328" y="209" style="fill:#BF7300;" width="106.67" height="30"/>
<rect x="27.665" y="273" style="fill:#00C47A;" width="456.67" height="239"/>
<rect x="255.998" y="273" style="fill:#00935C;" width="228.33" height="239"/>
<g>
	<path style="fill:#FFF1AB;" d="M163.858,392.5l20.174,10.717l-14.499,23.536l-20.594-12.609l0.63,22.485H121.41l0.63-22.485
		l-20.594,12.609l-14.29-23.536L107.33,392.5l-20.174-10.717l14.29-23.536l20.594,12.609l-0.63-22.485h28.159l-0.63,22.485
		l20.594-12.609l14.499,23.536L163.858,392.5z"/>
	<path style="fill:#FFF1AB;" d="M284.262,392.5l20.173,10.717l-14.499,23.536l-20.594-12.609l0.63,22.485h-28.159l0.63-22.485
		l-20.594,12.609l-14.29-23.536l20.174-10.717l-20.174-10.717l14.29-23.536l20.594,12.609l-0.63-22.485h28.159l-0.63,22.485
		l20.594-12.609l14.499,23.536L284.262,392.5z"/>
</g>
<g>
	<path style="fill:#FFDB2D;" d="M404.666,392.5l20.174,10.717l-14.5,23.536l-20.594-12.609l0.63,22.485h-28.158l0.63-22.485
		l-20.594,12.609l-14.29-23.536l20.174-10.717l-20.173-10.717l14.29-23.536l20.594,12.609l-0.63-22.485h28.159l-0.63,22.485
		l20.594-12.609l14.5,23.536L404.666,392.5z"/>
	<polygon style="fill:#FFDB2D;" points="304.435,381.783 289.936,358.247 269.342,370.855 269.972,348.371 255.998,348.371 
		255.998,436.629 269.972,436.629 269.342,414.145 289.936,426.753 304.435,403.217 284.262,392.5 	"/>
</g>
<g>
</g>
<g>
</g>
<g>
</g>
<g>
</g>
<g>
</g>
<g>
</g>
<g>
</g>
<g>
</g>
<g>
</g>
<g>
</g>
<g>
</g>
<g>
</g>
<g>
</g>
<g>
</g>
<g>
</g>
</svg>
