<?xml version="1.0" encoding="UTF-8" standalone="no"?>
<!-- Created with Inkscape (http://www.inkscape.org/) -->

<svg
   xmlns:dc="http://purl.org/dc/elements/1.1/"
   xmlns:cc="http://creativecommons.org/ns#"
   xmlns:rdf="http://www.w3.org/1999/02/22-rdf-syntax-ns#"
   xmlns:svg="http://www.w3.org/2000/svg"
   xmlns="http://www.w3.org/2000/svg"
   xmlns:sodipodi="http://sodipodi.sourceforge.net/DTD/sodipodi-0.dtd"
   xmlns:inkscape="http://www.inkscape.org/namespaces/inkscape"
   version="1.0"
   width="1133.5306"
   height="196.77135"
   id="svg1936"
   inkscape:version="0.91 r13725"
   sodipodi:docname="Amazon Prime.svg">
  <metadata
     id="metadata4211">
    <rdf:RDF>
      <cc:Work
         rdf:about="">
        <dc:format>image/svg+xml</dc:format>
        <dc:type
           rdf:resource="http://purl.org/dc/dcmitype/StillImage" />
        <dc:title></dc:title>
      </cc:Work>
    </rdf:RDF>
  </metadata>
  <sodipodi:namedview
     pagecolor="#ffffff"
     bordercolor="#666666"
     borderopacity="1"
     objecttolerance="10"
     gridtolerance="10"
     guidetolerance="10"
     inkscape:pageopacity="0"
     inkscape:pageshadow="2"
     inkscape:window-width="1366"
     inkscape:window-height="705"
     id="namedview4209"
     showgrid="false"
     inkscape:zoom="0.62057398"
     inkscape:cx="538.16712"
     inkscape:cy="90.749618"
     inkscape:window-x="-8"
     inkscape:window-y="-8"
     inkscape:window-maximized="1"
     inkscape:current-layer="svg1936"
     fit-margin-top="0"
     fit-margin-left="0"
     fit-margin-right="0"
     fit-margin-bottom="0" />
  <defs
     id="defs1938">
    <filter
       style="color-interpolation-filters:sRGB"
       inkscape:label="Invert"
       id="filter4224">
      <feColorMatrix
         type="hueRotate"
         values="180"
         result="color1"
         id="feColorMatrix4226" />
      <feColorMatrix
         values="-1 0 0 0 1 0 -1 0 0 1 0 0 -1 0 1 -0.21 -0.72 -0.07 2 0 "
         result="fbSourceGraphic"
         id="feColorMatrix4228" />
      <feColorMatrix
         result="fbSourceGraphicAlpha"
         in="fbSourceGraphic"
         values="0 0 0 -1 0 0 0 0 -1 0 0 0 0 -1 0 0 0 0 1 0"
         id="feColorMatrix4230" />
      <feColorMatrix
         id="feColorMatrix4232"
         type="hueRotate"
         values="180"
         result="color1"
         in="fbSourceGraphic" />
      <feColorMatrix
         id="feColorMatrix4234"
         values="-1 0 0 0 1 0 -1 0 0 1 0 0 -1 0 1 -0.21 -0.72 -0.07 2 0 "
         result="color2" />
    </filter>
  </defs>
  <g
     transform="translate(144.53434,-634.60507)"
     id="layer1">
    <g
       transform="translate(7.081691,7.081144)"
       id="g1967">
      <path
         d="m 222.02642,784.73404 c -34.99948,25.79739 -85.72909,39.56123 -129.406339,39.56123 -61.24255,0 -116.37656,-22.65135 -158.08757,-60.32496 -3.2771,-2.96252 -0.34083,-6.9999 3.59171,-4.69283 45.01431,26.19064 100.67269,41.94697 158.16623,41.94697 38.774689,0 81.429499,-8.02237 120.649899,-24.67006 5.92501,-2.51683 10.87999,3.88009 5.08607,8.17965"
         id="path8"
         style="fill:#ff9900;fill-opacity:1;fill-rule:evenodd;stroke:none"
         inkscape:connector-curvature="0" />
      <path
         d="m 236.57678,768.08635 c -4.45688,-5.71527 -29.57261,-2.70033 -40.84585,-1.36327 -3.43442,0.41947 -3.95874,-2.56925 -0.86517,-4.71905 20.00346,-14.07844 52.82696,-10.01483 56.65462,-5.2958 3.82764,4.74526 -0.99624,37.64741 -19.79373,53.35128 -2.88385,2.41195 -5.63662,1.12734 -4.35198,-2.07113 4.2209,-10.53917 13.68519,-34.16054 9.20211,-39.90203"
         id="path10"
         style="fill:#ff9900;fill-opacity:1;fill-rule:evenodd;stroke:none"
         inkscape:connector-curvature="0" />
      <path
         d="m 196.51744,662.61598 0,-13.68519 c 0,-2.07113 1.57301,-3.46062 3.46062,-3.46062 l 61.26875,0 c 1.96628,0 3.53929,1.41571 3.53929,3.46062 l 0,11.71893 c -0.0262,1.96626 -1.67788,4.53551 -4.61418,8.59912 l -31.74859,45.32893 c 11.79759,-0.28837 24.25059,1.46814 34.94706,7.49802 2.41195,1.36327 3.06737,3.35575 3.25089,5.32203 l 0,14.60278 c 0,1.99248 -2.20222,4.32576 -4.5093,3.1198 -18.84992,-9.88376 -43.887,-10.95865 -64.72939,0.10487 -2.12356,1.15354 -4.35199,-1.15354 -4.35199,-3.14602 l 0,-13.86871 c 0,-2.22843 0.0262,-6.02989 2.25463,-9.41186 l 36.78224,-52.74829 -32.01076,0 c -1.96626,0 -3.53927,-1.38948 -3.53927,-3.43441"
         id="path12"
         style="fill:#221f1f;fill-rule:evenodd;stroke:none"
         inkscape:connector-curvature="0" />
      <path
         d="m -26.981169,748.00424 -18.64017,0 c -1.78273,-0.13107 -3.19845,-1.46813 -3.32954,-3.17224 l 0,-95.66524 c 0,-1.91383 1.59923,-3.43442 3.59171,-3.43442 l 17.38176,0 c 1.80898,0.0786 3.25089,1.46814 3.38199,3.19845 l 0,12.50545 0.34082,0 c 4.53551,-12.08598 13.05597,-17.7226 24.53896043,-17.7226 11.66648957,0 18.95476957,5.63662 24.19813957,17.7226 4.5093,-12.08598 14.76008,-17.7226 25.74495,-17.7226 7.81262,0 16.35931,3.22467 21.57646,10.46052 5.89879,8.04857 4.69281,19.74128 4.69281,29.99208 l -0.02621,60.37739 c 0,1.91383 -1.59923,3.46061 -3.59171,3.46061 l -18.61397,0 c -1.86138,-0.13107 -3.35574,-1.62543 -3.35574,-3.46061 l 0,-50.70338 c 0,-4.03739 0.36702,-14.10466 -0.52434,-17.93233 -1.38949,-6.42311 -5.55797,-8.23209 -10.95865,-8.23209 -4.5093,0 -9.22833,3.01494 -11.14216,7.83885 -1.91383,4.8239 -1.73031,12.89867 -1.73031,18.32557 l 0,50.70338 c 0,1.91383 -1.59923,3.46061 -3.59171,3.46061 l -18.6139496,0 c -1.88761,-0.13107 -3.35575997,-1.62543 -3.35575997,-3.46061 l -0.02621,-50.70338 c 0,-10.67025 1.75650997,-26.37415 -11.48298043,-26.37415 -13.39682,0 -12.87248,15.31063 -12.87248,26.37415 l 0,50.70338 c 0,1.91383 -1.59923,3.46061 -3.59171,3.46061"
         id="path14"
         style="fill:#221f1f;fill-rule:evenodd;stroke:none"
         inkscape:connector-curvature="0" />
      <path
         d="m 317.53439,643.71364 c 27.65877,0 42.62858,23.75246 42.62858,53.95427 0,29.17934 -16.54284,52.32881 -42.62858,52.32881 -27.16066,0 -41.94697,-23.75246 -41.94697,-53.35127 0,-29.78234 14.96983,-52.93181 41.94697,-52.93181 m 0.15729,19.53156 c -13.73761,0 -14.60278,18.71881 -14.60278,30.38532 0,11.69271 -0.18352,36.65114 14.44549,36.65114 14.44548,0 15.12712,-20.13452 15.12712,-32.40403 0,-8.07477 -0.34082,-17.72257 -2.779,-25.3779 -2.09735,-6.65906 -6.26581,-9.25453 -12.19083,-9.25453"
         id="path16"
         style="fill:#221f1f;fill-rule:evenodd;stroke:none"
         inkscape:connector-curvature="0" />
      <path
         d="m 396.02762,748.00424 -18.56152,0 c -1.86141,-0.13107 -3.35577,-1.62543 -3.35577,-3.46061 l -0.0262,-95.69149 c 0.1573,-1.75653 1.7041,-3.1198 3.59171,-3.1198 l 17.27691,0 c 1.62543,0.0786 2.96249,1.17976 3.32954,2.67412 l 0,14.62899 0.3408,0 c 5.21717,-13.0822 12.53165,-19.32181 25.40412,-19.32181 8.36317,0 16.51662,3.01494 21.75999,11.27324 4.87633,7.65532 4.87633,20.5278 4.87633,29.78233 l 0,60.22011 c -0.20973,1.67786 -1.75653,3.01492 -3.59169,3.01492 l -18.69262,0 c -1.70411,-0.13107 -3.11982,-1.38948 -3.30332,-3.01492 l 0,-51.96179 c 0,-10.46052 1.20597,-25.77117 -11.66651,-25.77117 -4.5355,0 -8.70399,3.04117 -10.77512,7.65532 -2.62167,5.84637 -2.96249,11.66651 -2.96249,18.11585 l 0,51.5161 c -0.0262,1.91383 -1.65166,3.46061 -3.64414,3.46061"
         id="path18"
         style="fill:#221f1f;fill-rule:evenodd;stroke:none"
         inkscape:connector-curvature="0" />
      <path
         d="m 147.67545,702.30829 c 0,7.26206 0.18352,13.31815 -3.48684,19.7675 -2.9625,5.24338 -7.68153,8.46805 -12.89868,8.46805 -7.1572,0 -11.35189,-5.45312 -11.35189,-13.50169 0,-15.8874 14.23574,-18.77125 27.73741,-18.77125 l 0,4.03739 m 18.79748,45.43378 c -1.23218,1.10111 -3.01494,1.17976 -4.40443,0.4457 -6.18718,-5.1385 -7.3145,-7.52423 -10.69647,-12.42678 -10.22457,10.4343 -17.48665,13.55409 -30.72615,13.55409 -15.70389,0 -27.894719,-9.67401 -27.894719,-29.04824 0,-15.12713 8.179669,-25.43035 19.872379,-30.46398 10.1197,-4.45688 24.25056,-5.24337 35.05191,-6.47556 l 0,-2.41195 c 0,-4.43066 0.34082,-9.67403 -2.28086,-13.50167 -2.25465,-3.43442 -6.60666,-4.85013 -10.46052,-4.85013 -7.10478,0 -13.42302,3.64414 -14.96983,11.19459 -0.3146,1.67789 -1.54678,3.32955 -3.25089,3.4082 l -18.063399,-1.94006 c -1.52058,-0.3408 -3.22467,-1.57301 -2.77898,-3.90629 4.142259,-21.91728 23.962199,-28.52394 41.684769,-28.52394 9.07104,0 20.92105,2.41195 28.07825,9.28076 9.07102,8.46804 8.20587,19.7675 8.20587,32.06321 l 0,29.04826 c 0,8.73022 3.61792,12.55786 7.02611,17.27691 1.17977,1.67786 1.44194,3.69656 -0.0787,4.95497 -3.80144,3.17225 -10.56539,9.07104 -14.28818,12.37436 l -0.0262,-0.0525"
         id="path28"
         style="fill:#221f1f;fill-rule:evenodd;stroke:none"
         inkscape:connector-curvature="0" />
      <path
         d="m -96.691739,702.30829 c 0,7.26206 0.1835,13.31815 -3.486841,19.7675 -2.96252,5.24338 -7.65533,8.46805 -12.8987,8.46805 -7.1572,0 -11.32567,-5.45312 -11.32567,-13.50169 0,-15.8874 14.23574,-18.77125 27.711211,-18.77125 l 0,4.03739 m 18.79747,45.43378 c -1.23219,1.10111 -3.01495,1.17976 -4.40444,0.4457 -6.18716,-5.1385 -7.28828,-7.52423 -10.69647,-12.42678 -10.224571,10.4343 -17.460401,13.55409 -30.726141,13.55409 -15.67768,0 -27.89471,-9.67401 -27.89471,-29.04824 0,-15.12713 8.20587,-25.43035 19.87236,-30.46398 10.1197,-4.45688 24.25058,-5.24337 35.051931,-6.47556 l 0,-2.41195 c 0,-4.43066 0.34082,-9.67403 -2.25465,-13.50167 -2.280881,-3.43442 -6.632861,-4.85013 -10.460531,-4.85013 -7.10475,0 -13.44924,3.64414 -14.99603,11.19459 -0.31461,1.67789 -1.5468,3.32955 -3.22467,3.4082 l -18.08962,-1.94006 c -1.52058,-0.3408 -3.19846,-1.57301 -2.77899,-3.90629 4.16848,-21.91728 23.96219,-28.52394 41.68479,-28.52394 9.071011,0 20.921021,2.41195 28.078221,9.28076 9.07104,8.46804 8.20587,19.7675 8.20587,32.06321 l 0,29.04826 c 0,8.73022 3.61794,12.55786 7.02613,17.27691 1.20597,1.67786 1.46814,3.69656 -0.05244,4.95497 -3.80144,3.17225 -10.56538,9.07104 -14.28819,12.37436 l -0.05242,-0.0525"
         id="path30"
         style="fill:#221f1f;fill-rule:evenodd;stroke:none"
         inkscape:connector-curvature="0" />
    </g>
  </g>
  <path
     style="font-style:normal;font-weight:normal;font-size:149.15028381px;line-height:125%;font-family:sans-serif;letter-spacing:0px;word-spacing:0px;fill:#4fa3c3;fill-opacity:1;stroke:none;stroke-width:1px;stroke-linecap:butt;stroke-linejoin:miter;stroke-opacity:1"
     d="m 686.54975,0 c -16.56123,0 -27.35933,0.285819 -32.39568,0.854887 -2.06436,0.227627 -3.20525,0.880492 -3.42282,1.961728 l -0.28545,1.196834 c -4.54879,19.689824 -9.6509,38.468066 -15.30455,56.336859 -1.99857,6.316676 -5.13006,15.820124 -9.39427,28.510377 -4.18395,12.633355 -7.27589,22.108225 -9.27448,28.424895 -0.52214,1.65031 0.12124,2.47466 1.92677,2.47466 3.79789,0 9.46784,0.0857 17.00959,0.25647 7.52373,0.22763 13.18367,0.34196 16.98154,0.34196 1.30747,0 2.16765,-0.65513 2.58178,-1.96399 0.81023,-2.56081 1.75594,-6.42989 2.83406,-11.60843 1.07814,-5.17853 2.03134,-9.07618 2.85958,-11.693906 0.6662,-2.105559 2.33853,-3.158575 5.01571,-3.158575 2.49042,0 6.18046,0.14291 11.07126,0.42745 4.97108,0.227628 8.70066,0.341947 11.19107,0.341947 14.88021,0 27.98498,-4.5242 39.31521,-13.572404 10.60787,-8.536048 18.09111,-19.690468 22.44839,-33.461957 4.24922,-13.430048 3.08139,-24.298661 -3.50438,-32.607082 C 739.73208,4.980929 729.18126,0.740301 714.55159,0.341948 705.65814,0.114321 696.32462,0 686.54975,0 Z M 867.1842,2.305934 c -4.98083,0 -9.6608,1.307999 -14.03788,3.9257132 -4.7604,2.8453533 -7.84203,6.4880248 -9.24645,10.9267688 -1.47642,4.666372 -0.77893,8.363963 2.09244,11.095503 2.63209,2.503901 6.56266,3.75698 11.79253,3.75698 12.20301,0 19.87105,-4.95067 23.00396,-14.852483 1.38641,-4.381832 0.63188,-7.9959256 -2.26574,-10.841279 C 875.82049,3.64251 872.04051,2.305934 867.1842,2.305934 Z M 697.10619,27.144821 c 14.13309,0 19.10218,6.630219 14.90697,19.88954 -3.94315,12.462638 -12.67163,18.692719 -26.18212,18.692719 -11.20686,0 -16.62804,-0.567134 -16.26794,-1.70527 0.55816,-1.764118 1.28301,-4.353774 2.17653,-7.768195 0.9738,-3.471323 1.74071,-6.089567 2.29888,-7.853685 3.92514,-12.405725 6.22161,-18.978779 6.89151,-19.718573 0.82218,-1.024323 6.21452,-1.536536 16.17617,-1.536536 z m 404.29241,5.889698 c -14.1953,0 -26.9594,4.326372 -38.2882,12.976234 -10.9896,8.365322 -18.5543,19.091026 -22.6955,32.179633 -4.2493,13.430048 -2.9723,24.157994 3.8281,32.181884 6.5872,7.91007 17.2897,11.86489 32.1075,11.86489 16.001,0 28.9786,-3.72842 38.933,-11.18324 1.222,-0.9105 1.8951,-1.56338 2.0211,-1.96172 0.45,-1.42268 -0.053,-4.75321 -1.5088,-9.988653 -1.3942,-5.235441 -2.6547,-8.137246 -3.7822,-8.706314 l -8.3952,4.096693 c -6.4677,2.731528 -12.4726,4.09894 -18.0137,4.09894 -4.6072,0 -8.4639,-0.798032 -11.5708,-2.391423 -3.8083,-1.934833 -5.5641,-4.750895 -5.2655,-8.449857 14.893,-1.024322 26.13,-1.905852 33.7108,-2.645634 12.5631,-1.138138 19.2069,-1.764683 19.9277,-1.878496 4.299,-0.796696 7.3566,-4.070063 9.1752,-9.817671 3.4749,-10.983049 2.3025,-20.457919 -3.5198,-28.424887 -5.822,-7.96698 -14.7097,-11.950379 -26.6637,-11.950379 z M 955.553,34.998494 c -5.60345,0 -11.13393,1.053015 -16.59416,3.158574 -3.70568,1.479589 -8.99126,4.209896 -15.85506,8.193386 -0.98944,0.569069 -1.83107,0.96922 -2.5257,1.196847 -0.43582,0 -0.0638,-1.963122 1.11631,-5.889711 1.19811,-3.983479 1.20588,-5.975189 0.0229,-5.975189 -1.86781,0 -4.45269,0.397893 -7.7555,1.194588 -4.63806,1.081236 -7.28548,1.679192 -7.9441,1.793007 -0.90765,0.113802 -3.76021,0.368797 -8.55576,0.76715 -3.90592,0.341441 -6.62386,0.767912 -8.15562,1.280079 -0.97968,0.341441 -1.62324,0.996564 -1.92932,1.963986 -0.10806,0.34144 -0.2092,0.853654 -0.30076,1.536536 -2.19681,11.66593 -4.76949,22.165227 -7.72236,31.497972 -1.44041,4.552558 -3.63237,11.380607 -6.57546,20.485724 -2.9251,9.048207 -5.10958,15.849927 -6.55,20.402477 -0.45012,1.42268 -0.59482,2.27562 -0.4358,2.56016 0.22126,0.28453 1.05981,0.48235 2.51804,0.59616 4.8728,0.34145 9.27188,0.51294 13.19428,0.51294 6.03925,0 10.4964,-0.11438 13.37015,-0.34196 1.5925,-0.1138 2.62773,-0.34021 3.10932,-0.68165 0.48159,-0.34145 0.94907,-1.22297 1.39919,-2.64565 1.62048,-5.12162 4.0287,-12.83345 7.22538,-23.133602 3.19669,-10.300166 5.61494,-18.040568 7.25342,-23.219107 0.73821,-2.333186 3.18221,-4.55128 7.33496,-6.656839 3.78746,-1.934844 7.05241,-2.902105 9.79186,-2.902105 6.78638,0 8.89027,4.069142 6.31552,12.206837 -0.68421,2.162471 -1.6388,5.376415 -2.86467,9.644445 -1.22588,4.268018 -2.17044,7.455642 -2.83663,9.5612 -0.86425,2.73154 -2.23676,6.772104 -4.11605,12.121361 -1.87926,5.34925 -3.24177,9.36123 -4.088,12.03587 -0.73821,2.33318 -0.23705,3.49826 1.50625,3.49826 l 28.29748,0 c 1.80554,0 3.00704,-0.93869 3.60122,-2.81661 0.86425,-2.73153 2.05711,-6.80069 3.58083,-12.20684 1.54172,-5.463081 2.73458,-9.529976 3.58083,-12.204603 3.67306,-11.609018 6.01367,-18.608553 7.01894,-20.998652 1.17555,-2.731528 3.54706,-5.206863 7.11323,-7.426235 3.64645,-2.276285 6.93189,-3.415033 9.85813,-3.415033 6.6618,0 9.10908,3.38543 7.34008,10.157361 -1.08342,4.211118 -3.20026,11.296396 -6.35121,21.255121 -0.82825,2.617726 -2.16575,6.543958 -4.00901,11.779401 -1.82526,5.17854 -3.15018,9.07619 -3.97843,11.69392 -0.77422,2.447 -0.28155,3.84073 1.47823,4.18217 1.75976,0.34145 6.43702,0.51294 14.03276,0.51294 7.34679,0 11.98849,-0.11438 13.92829,-0.34196 1.94,-0.22763 3.226,-1.33555 3.8561,-3.3273 1.1344,-3.58513 2.7427,-8.96453 4.8247,-16.1348 2.0997,-7.22719 3.7157,-12.632919 4.85,-16.218056 0.9543,-3.016068 2.4794,-7.540267 4.5748,-13.572404 2.1133,-6.089048 3.6484,-10.641827 4.6029,-13.657894 2.3046,-7.284098 1.1515,-12.889891 -3.4587,-16.816469 -4.0692,-3.471334 -10.2132,-5.205803 -18.4316,-5.205803 -5.4789,0 -11.55547,1.393743 -18.22789,4.182183 -6.67248,2.788441 -12.3064,6.231048 -16.90256,10.328352 1.7e-4,-4.723273 -2.10832,-8.392287 -6.32317,-11.010002 -3.74452,-2.333185 -8.48069,-3.500533 -14.20863,-3.500533 z m -161.54009,0.512939 c -0.3113,0 -5.66365,0.881517 -16.05894,2.645635 -6.88768,0.910509 -12.09844,1.537055 -15.63078,1.878496 -1.02393,0.28454 -1.66944,0.851662 -1.9395,1.70527 -0.10806,0.341441 -0.18166,0.770168 -0.21919,1.282325 -0.0596,8.649862 -2.20663,19.661372 -6.43784,33.034519 -1.44043,4.552558 -3.62983,11.380607 -6.57294,20.485724 -2.92508,9.048208 -5.10957,15.847668 -6.54998,20.400228 -0.52216,1.65029 0.20925,2.58899 2.19181,2.81661 3.44081,0.34145 8.11807,0.51294 14.03278,0.51294 6.16377,0 10.77602,-0.11438 13.83656,-0.34196 2.10859,-0.17072 3.37806,-0.93791 3.8102,-2.30369 0.50414,-1.59339 1.1444,-4.01155 1.92166,-7.25526 0.79527,-3.3006 1.45558,-5.77594 1.97775,-7.42624 0.77422,-2.447 1.88148,-6.146838 3.3234,-11.09775 1.52221,-5.007814 2.67154,-8.733981 3.44576,-11.180981 1.42241,-4.495646 3.30164,-7.483195 5.63758,-8.962784 2.33595,-1.479578 6.08716,-2.220444 11.25477,-2.220444 1.12069,0 2.77484,0.0857 4.96218,0.256458 2.26764,0.113802 3.99334,0.17098 5.17629,0.17098 2.67719,0 4.36703,-1.11017 5.06923,-3.329543 0.3421,-1.081235 0.98132,-3.301587 1.91912,-6.659095 0.80199,-2.73154 1.46324,-4.921057 1.98539,-6.571361 0.51238,-1.422676 1.4699,-3.757349 2.86976,-7.001056 1.32783,-3.016068 2.25077,-5.348493 2.77291,-6.998798 0.43213,-1.365764 -1.09331,-2.049474 -4.57988,-2.049474 -5.54118,0 -11.77827,1.508074 -18.70953,4.524142 -6.27305,2.68512 -9.32968,4.149493 -9.19292,4.398153 -0.66597,-0.206122 -0.62226,-1.970701 0.15037,-5.336273 0.82301,-3.585148 0.67467,-5.376771 -0.44602,-5.376771 z m 45.28414,2.987594 c -1.68103,0 -2.70335,0.567122 -3.06347,1.70527 -0.09,0.284529 -0.21619,0.882485 -0.37974,1.793007 -1.65516,9.560371 -5.04028,22.422929 -10.15375,38.584505 -1.26039,3.983489 -3.23352,9.93001 -5.92304,17.840078 -2.6715,7.853163 -4.62968,13.742523 -5.87206,17.669113 -0.46813,1.47958 -0.67436,2.33251 -0.62186,2.56014 0.14926,0.51217 0.87119,0.88148 2.16888,1.1091 2.00883,0.34145 6.75016,0.51294 14.2214,0.51294 7.40898,0 12.22586,-0.17149 14.45075,-0.51294 1.62852,-0.22762 2.63183,-0.93766 3.00993,-2.13271 1.29638,-4.0973 3.1475,-10.24388 5.55348,-18.438493 2.42398,-8.251508 4.29261,-14.453012 5.60699,-18.607228 4.62735,-14.625086 9.38141,-27.487644 14.26216,-38.584505 0.39461,-0.853609 0.62886,-1.394411 0.70087,-1.622038 0.3601,-1.138137 -0.20824,-1.70527 -1.70248,-1.70527 -1.80556,0 -4.55901,0.140663 -8.26013,0.425203 -3.70112,0.284528 -6.45458,0.427438 -8.26012,0.427438 -1.80555,0 -4.45886,-0.171487 -7.96194,-0.512928 -3.4408,-0.341441 -6.03259,-0.510682 -7.77587,-0.510682 z m 251.54515,16.389019 c 3.7979,0 6.6421,1.336577 8.5353,4.011204 1.8932,2.674639 2.2811,5.776508 1.1648,9.304743 -0.1981,0.625981 -1.3675,1.081028 -3.5121,1.365569 -10.1267,1.308851 -17.4944,1.963973 -22.1017,1.963973 -1.7433,0 -2.3721,-0.769443 -1.8861,-2.305933 1.1884,-3.755863 3.4064,-7.026972 6.6545,-9.815413 3.507,-3.016068 7.2228,-4.524143 11.1453,-4.524143 z"
     id="text4240"
     inkscape:connector-curvature="0" />
</svg>
